<svg width="1440" height="435" viewBox="0 0 1440 435" fill="none" xmlns="http://www.w3.org/2000/svg">
<g clip-path="url(#clip0_5383_22206)">
<g opacity="0.09">
<line x1="1" y1="16.6323" x2="1441" y2="16.6323" stroke="url(#paint0_linear_5383_22206)"/>
<line x1="1" y1="36.7322" x2="1441" y2="36.7322" stroke="url(#paint1_linear_5383_22206)"/>
<line x1="1" y1="61.4692" x2="1441" y2="61.4692" stroke="url(#paint2_linear_5383_22206)"/>
<line x1="1" y1="84.6616" x2="1441" y2="84.6616" stroke="url(#paint3_linear_5383_22206)"/>
<line x1="1" y1="107.853" x2="1441" y2="107.853" stroke="url(#paint4_linear_5383_22206)"/>
<line x1="1" y1="126.407" x2="1441" y2="126.407" stroke="url(#paint5_linear_5383_22206)"/>
<line x1="1" y1="144.96" x2="1441" y2="144.96" stroke="url(#paint6_linear_5383_22206)"/>
<line x1="1" y1="163.513" x2="1441" y2="163.513" stroke="url(#paint7_linear_5383_22206)"/>
<line x1="1" y1="182.066" x2="1441" y2="182.066" stroke="url(#paint8_linear_5383_22206)"/>
<line x1="1" y1="199.073" x2="1441" y2="199.073" stroke="url(#paint9_linear_5383_22206)"/>
<line x1="1" y1="216.081" x2="1441" y2="216.081" stroke="url(#paint10_linear_5383_22206)"/>
<line opacity="0.75" x1="1" y1="229.996" x2="1441" y2="229.996" stroke="url(#paint11_linear_5383_22206)"/>
<line opacity="0.7" x1="1" y1="243.911" x2="1441" y2="243.911" stroke="url(#paint12_linear_5383_22206)"/>
<line opacity="0.7" x1="1" y1="256.279" x2="1441" y2="256.279" stroke="url(#paint13_linear_5383_22206)"/>
<line opacity="0.65" x1="1" y1="268.649" x2="1441" y2="268.649" stroke="url(#paint14_linear_5383_22206)"/>
<line opacity="0.65" x1="1" y1="281.017" x2="1441" y2="281.017" stroke="url(#paint15_linear_5383_22206)"/>
<line opacity="0.5" x1="1" y1="293.386" x2="1441" y2="293.386" stroke="url(#paint16_linear_5383_22206)"/>
<line opacity="0.6" x1="1" y1="305.755" x2="1441" y2="305.755" stroke="url(#paint17_linear_5383_22206)"/>
<line opacity="0.55" x1="1" y1="318.124" x2="1441" y2="318.124" stroke="url(#paint18_linear_5383_22206)"/>
<line opacity="0.5" x1="1" y1="330.493" x2="1441" y2="330.493" stroke="url(#paint19_linear_5383_22206)"/>
<line opacity="0.5" x1="1" y1="342.862" x2="1441" y2="342.862" stroke="url(#paint20_linear_5383_22206)"/>
<line opacity="0.4" x1="1" y1="355.231" x2="1441" y2="355.231" stroke="url(#paint21_linear_5383_22206)"/>
<line opacity="0.4" x1="1" y1="367.6" x2="1441" y2="367.6" stroke="url(#paint22_linear_5383_22206)"/>
<line opacity="0.3" x1="1" y1="379.968" x2="1441" y2="379.968" stroke="url(#paint23_linear_5383_22206)"/>
<line opacity="0.6" y1="-0.5" x2="523.766" y2="-0.5" transform="matrix(0.588048 0.808826 -0.498721 0.866762 89 1.67114)" stroke="url(#paint24_linear_5383_22206)"/>
<path opacity="0.6" d="M9.33303 1.09452L355.501 419.122" stroke="url(#paint25_linear_5383_22206)"/>
<line opacity="0.6" y1="-0.5" x2="562.222" y2="-0.5" transform="matrix(0.67589 0.737003 -0.415014 0.909815 -71 1.67114)" stroke="url(#paint26_linear_5383_22206)"/>
<line opacity="0.6" y1="-0.5" x2="601.495" y2="-0.5" transform="matrix(0.709898 0.704305 -0.383328 0.923612 -151 1.67114)" stroke="url(#paint27_linear_5383_22206)"/>
<line opacity="0.6" y1="-0.5" x2="618.364" y2="-0.5" transform="matrix(0.742281 0.670089 -0.353289 0.935514 -231 1.67114)" stroke="url(#paint28_linear_5383_22206)"/>
<line opacity="0.6" y1="-0.5" x2="655.42" y2="-0.5" transform="matrix(0.768973 0.639281 -0.328477 0.944512 -311 1.67114)" stroke="url(#paint29_linear_5383_22206)"/>
<line opacity="0.6" y1="-0.5" x2="655.42" y2="-0.5" transform="matrix(0.768973 0.639281 -0.328477 0.944512 -352 6.31006)" stroke="url(#paint30_linear_5383_22206)"/>
<line opacity="0.6" y1="-0.5" x2="655.42" y2="-0.5" transform="matrix(0.768973 0.639281 -0.328477 0.944512 -393 10.9473)" stroke="url(#paint31_linear_5383_22206)"/>
<line opacity="0.6" y1="-0.5" x2="655.42" y2="-0.5" transform="matrix(0.768973 0.639281 -0.328477 0.944512 -434 15.5859)" stroke="url(#paint32_linear_5383_22206)"/>
<line opacity="0.6" y1="-0.5" x2="655.42" y2="-0.5" transform="matrix(0.768973 0.639281 -0.328477 0.944512 -475 20.2244)" stroke="url(#paint33_linear_5383_22206)"/>
<line opacity="0.6" y1="-0.5" x2="493.475" y2="-0.5" transform="matrix(0.543087 0.839676 -0.543087 0.839676 166 1.67114)" stroke="url(#paint34_linear_5383_22206)"/>
<line opacity="0.6" y1="-0.5" x2="464.35" y2="-0.5" transform="matrix(0.488856 0.872365 -0.598207 0.801342 243 1.67114)" stroke="url(#paint35_linear_5383_22206)"/>
<line opacity="0.6" y1="-0.5" x2="446.162" y2="-0.5" transform="matrix(0.41913 0.907926 -0.671494 0.74101 325 1.67114)" stroke="url(#paint36_linear_5383_22206)"/>
<line opacity="0.6" y1="-0.5" x2="432.311" y2="-0.5" transform="matrix(0.349286 0.937016 -0.746596 0.665278 404 1.67114)" stroke="url(#paint37_linear_5383_22206)"/>
<line opacity="0.6" y1="-0.5" x2="420.015" y2="-0.5" transform="matrix(0.264276 0.964447 -0.836514 0.547945 483 1.67114)" stroke="url(#paint38_linear_5383_22206)"/>
<line opacity="0.6" y1="-0.5" x2="411.967" y2="-0.5" transform="matrix(0.182053 0.983289 -0.91444 0.404722 562 1.67114)" stroke="url(#paint39_linear_5383_22206)"/>
<line opacity="0.6" y1="-0.5" x2="406.861" y2="-0.5" transform="matrix(0.093398 0.995629 -0.975767 0.218812 641 1.67114)" stroke="url(#paint40_linear_5383_22206)"/>
<line opacity="0.6" y1="-0.5" x2="405.083" y2="-0.5" transform="matrix(0.00246863 0.999997 -0.999983 0.0059011 720 1.67114)" stroke="url(#paint41_linear_5383_22206)"/>
<line opacity="0.6" y1="-0.5" x2="406.679" y2="-0.5" transform="matrix(-0.0885219 0.996074 -0.97817 -0.207806 799 1.67114)" stroke="url(#paint42_linear_5383_22206)"/>
<line opacity="0.6" y1="-0.5" x2="411.786" y2="-0.5" transform="matrix(-0.179705 0.983721 -0.91643 -0.400195 878 1.67114)" stroke="url(#paint43_linear_5383_22206)"/>
<line opacity="0.6" y1="-0.5" x2="419.752" y2="-0.5" transform="matrix(-0.26206 0.965052 -0.838776 -0.544477 957 1.67114)" stroke="url(#paint44_linear_5383_22206)"/>
<line opacity="0.6" y1="-0.5" x2="426.573" y2="-0.5" transform="matrix(-0.344607 0.938747 -0.751635 -0.659579 1036 1.67114)" stroke="url(#paint45_linear_5383_22206)"/>
<line opacity="0.6" y1="-0.5" x2="439.45" y2="-0.5" transform="matrix(-0.411878 0.911239 -0.679242 -0.733914 1115 1.67114)" stroke="url(#paint46_linear_5383_22206)"/>
<line opacity="0.6" y1="-0.5" x2="455.461" y2="-0.5" transform="matrix(-0.476441 0.879207 -0.61107 -0.791577 1194 1.67114)" stroke="url(#paint47_linear_5383_22206)"/>
<line opacity="0.6" y1="-0.5" x2="473.138" y2="-0.5" transform="matrix(-0.532614 0.846358 -0.553594 -0.832787 1273 1.67114)" stroke="url(#paint48_linear_5383_22206)"/>
<line opacity="0.6" y1="-0.5" x2="496.19" y2="-0.5" transform="matrix(-0.5905 0.807038 -0.496335 -0.868131 1352 1.67114)" stroke="url(#paint49_linear_5383_22206)"/>
<line opacity="0.6" y1="-0.5" x2="517.629" y2="-0.5" transform="matrix(-0.633659 0.773613 -0.454836 -0.890575 1431 1.67114)" stroke="url(#paint50_linear_5383_22206)"/>
<line opacity="0.6" y1="-0.5" x2="544.533" y2="-0.5" transform="matrix(-0.677645 0.73539 -0.413372 -0.910562 1512 1.67114)" stroke="url(#paint51_linear_5383_22206)"/>
<path opacity="0.6" d="M1586.31 2.27808L1188.31 402.722" stroke="url(#paint52_linear_5383_22206)"/>
<path opacity="0.6" d="M1660.31 2.27808L1233.31 402.722" stroke="url(#paint53_linear_5383_22206)"/>
<path opacity="0.6" d="M1736.31 2.27808L1278.31 402.722" stroke="url(#paint54_linear_5383_22206)"/>
<path opacity="0.6" d="M1791.31 2.27808L1323.31 402.722" stroke="url(#paint55_linear_5383_22206)"/>
<path opacity="0.6" d="M1826.31 2.27808L1368.31 402.722" stroke="url(#paint56_linear_5383_22206)"/>
<path opacity="0.6" d="M1861.31 2.27808L1406.31 402.722" stroke="url(#paint57_linear_5383_22206)"/>
</g>
</g>
<defs>
<linearGradient id="paint0_linear_5383_22206" x1="1" y1="17.6323" x2="1441" y2="17.6323" gradientUnits="userSpaceOnUse">
<stop stop-color="#666666" stop-opacity="0.4"/>
<stop offset="0.485" stop-opacity="0.4"/>
<stop offset="1" stop-color="#666666" stop-opacity="0.4"/>
</linearGradient>
<linearGradient id="paint1_linear_5383_22206" x1="1" y1="37.7322" x2="1441" y2="37.7322" gradientUnits="userSpaceOnUse">
<stop stop-color="#666666" stop-opacity="0.4"/>
<stop offset="0.485" stop-opacity="0.4"/>
<stop offset="1" stop-color="#666666" stop-opacity="0.4"/>
</linearGradient>
<linearGradient id="paint2_linear_5383_22206" x1="1" y1="62.4692" x2="1441" y2="62.4692" gradientUnits="userSpaceOnUse">
<stop stop-color="#666666" stop-opacity="0.4"/>
<stop offset="0.485" stop-opacity="0.4"/>
<stop offset="1" stop-color="#666666" stop-opacity="0.4"/>
</linearGradient>
<linearGradient id="paint3_linear_5383_22206" x1="1" y1="85.6616" x2="1441" y2="85.6616" gradientUnits="userSpaceOnUse">
<stop stop-color="#666666" stop-opacity="0.4"/>
<stop offset="0.485" stop-opacity="0.4"/>
<stop offset="1" stop-color="#666666" stop-opacity="0.4"/>
</linearGradient>
<linearGradient id="paint4_linear_5383_22206" x1="1" y1="108.853" x2="1441" y2="108.853" gradientUnits="userSpaceOnUse">
<stop stop-color="#666666" stop-opacity="0.4"/>
<stop offset="0.485" stop-opacity="0.4"/>
<stop offset="1" stop-color="#666666" stop-opacity="0.4"/>
</linearGradient>
<linearGradient id="paint5_linear_5383_22206" x1="1" y1="127.407" x2="1441" y2="127.407" gradientUnits="userSpaceOnUse">
<stop stop-color="#666666" stop-opacity="0.4"/>
<stop offset="0.485" stop-opacity="0.4"/>
<stop offset="1" stop-color="#666666" stop-opacity="0.4"/>
</linearGradient>
<linearGradient id="paint6_linear_5383_22206" x1="1" y1="145.96" x2="1441" y2="145.96" gradientUnits="userSpaceOnUse">
<stop stop-color="#666666" stop-opacity="0.4"/>
<stop offset="0.485" stop-opacity="0.4"/>
<stop offset="1" stop-color="#666666" stop-opacity="0.4"/>
</linearGradient>
<linearGradient id="paint7_linear_5383_22206" x1="1" y1="164.513" x2="1441" y2="164.513" gradientUnits="userSpaceOnUse">
<stop stop-color="#666666" stop-opacity="0.4"/>
<stop offset="0.485" stop-opacity="0.4"/>
<stop offset="1" stop-color="#666666" stop-opacity="0.4"/>
</linearGradient>
<linearGradient id="paint8_linear_5383_22206" x1="1" y1="183.066" x2="1441" y2="183.066" gradientUnits="userSpaceOnUse">
<stop stop-color="#666666" stop-opacity="0.4"/>
<stop offset="0.485" stop-opacity="0.4"/>
<stop offset="1" stop-color="#666666" stop-opacity="0.4"/>
</linearGradient>
<linearGradient id="paint9_linear_5383_22206" x1="1" y1="200.073" x2="1441" y2="200.073" gradientUnits="userSpaceOnUse">
<stop stop-color="#666666" stop-opacity="0.4"/>
<stop offset="0.485" stop-opacity="0.4"/>
<stop offset="1" stop-color="#666666" stop-opacity="0.4"/>
</linearGradient>
<linearGradient id="paint10_linear_5383_22206" x1="1" y1="217.081" x2="1441" y2="217.081" gradientUnits="userSpaceOnUse">
<stop stop-color="#666666" stop-opacity="0.4"/>
<stop offset="0.485" stop-opacity="0.4"/>
<stop offset="1" stop-color="#666666" stop-opacity="0.4"/>
</linearGradient>
<linearGradient id="paint11_linear_5383_22206" x1="1" y1="230.996" x2="1441" y2="230.996" gradientUnits="userSpaceOnUse">
<stop stop-color="#666666" stop-opacity="0.4"/>
<stop offset="0.485" stop-opacity="0.4"/>
<stop offset="1" stop-color="#666666" stop-opacity="0.4"/>
</linearGradient>
<linearGradient id="paint12_linear_5383_22206" x1="1" y1="244.911" x2="1441" y2="244.911" gradientUnits="userSpaceOnUse">
<stop stop-color="#666666" stop-opacity="0.4"/>
<stop offset="0.485" stop-opacity="0.4"/>
<stop offset="1" stop-color="#666666" stop-opacity="0.4"/>
</linearGradient>
<linearGradient id="paint13_linear_5383_22206" x1="1" y1="257.279" x2="1441" y2="257.279" gradientUnits="userSpaceOnUse">
<stop stop-color="#666666" stop-opacity="0.4"/>
<stop offset="0.485" stop-opacity="0.4"/>
<stop offset="1" stop-color="#666666" stop-opacity="0.4"/>
</linearGradient>
<linearGradient id="paint14_linear_5383_22206" x1="1" y1="269.649" x2="1441" y2="269.649" gradientUnits="userSpaceOnUse">
<stop stop-color="#666666" stop-opacity="0.4"/>
<stop offset="0.485" stop-opacity="0.4"/>
<stop offset="1" stop-color="#666666" stop-opacity="0.4"/>
</linearGradient>
<linearGradient id="paint15_linear_5383_22206" x1="1" y1="282.017" x2="1441" y2="282.017" gradientUnits="userSpaceOnUse">
<stop stop-color="#666666" stop-opacity="0.4"/>
<stop offset="0.485" stop-opacity="0.4"/>
<stop offset="1" stop-color="#666666" stop-opacity="0.4"/>
</linearGradient>
<linearGradient id="paint16_linear_5383_22206" x1="1" y1="294.386" x2="1441" y2="294.386" gradientUnits="userSpaceOnUse">
<stop stop-color="#666666" stop-opacity="0.4"/>
<stop offset="0.485" stop-opacity="0.4"/>
<stop offset="1" stop-color="#666666" stop-opacity="0.4"/>
</linearGradient>
<linearGradient id="paint17_linear_5383_22206" x1="1" y1="306.755" x2="1441" y2="306.755" gradientUnits="userSpaceOnUse">
<stop stop-color="#666666" stop-opacity="0.4"/>
<stop offset="0.485" stop-opacity="0.4"/>
<stop offset="1" stop-color="#666666" stop-opacity="0.4"/>
</linearGradient>
<linearGradient id="paint18_linear_5383_22206" x1="1" y1="319.124" x2="1441" y2="319.124" gradientUnits="userSpaceOnUse">
<stop stop-color="#666666" stop-opacity="0.4"/>
<stop offset="0.485" stop-opacity="0.4"/>
<stop offset="1" stop-color="#666666" stop-opacity="0.4"/>
</linearGradient>
<linearGradient id="paint19_linear_5383_22206" x1="1" y1="331.493" x2="1441" y2="331.493" gradientUnits="userSpaceOnUse">
<stop stop-color="#666666" stop-opacity="0.4"/>
<stop offset="0.485" stop-opacity="0.4"/>
<stop offset="1" stop-color="#666666" stop-opacity="0.4"/>
</linearGradient>
<linearGradient id="paint20_linear_5383_22206" x1="1" y1="343.862" x2="1441" y2="343.862" gradientUnits="userSpaceOnUse">
<stop stop-color="#666666" stop-opacity="0.4"/>
<stop offset="0.485" stop-opacity="0.4"/>
<stop offset="1" stop-color="#666666" stop-opacity="0.4"/>
</linearGradient>
<linearGradient id="paint21_linear_5383_22206" x1="1" y1="356.231" x2="1441" y2="356.231" gradientUnits="userSpaceOnUse">
<stop stop-color="#666666" stop-opacity="0.4"/>
<stop offset="0.485" stop-opacity="0.4"/>
<stop offset="1" stop-color="#666666" stop-opacity="0.4"/>
</linearGradient>
<linearGradient id="paint22_linear_5383_22206" x1="1" y1="368.6" x2="1441" y2="368.6" gradientUnits="userSpaceOnUse">
<stop stop-color="#666666" stop-opacity="0.4"/>
<stop offset="0.485" stop-opacity="0.4"/>
<stop offset="1" stop-color="#666666" stop-opacity="0.4"/>
</linearGradient>
<linearGradient id="paint23_linear_5383_22206" x1="1" y1="380.968" x2="1441" y2="380.968" gradientUnits="userSpaceOnUse">
<stop stop-color="#666666" stop-opacity="0.4"/>
<stop offset="0.485" stop-opacity="0.4"/>
<stop offset="1" stop-color="#666666" stop-opacity="0.4"/>
</linearGradient>
<linearGradient id="paint24_linear_5383_22206" x1="0" y1="0.5" x2="523.766" y2="0.5" gradientUnits="userSpaceOnUse">
<stop/>
<stop offset="1" stop-color="#666666" stop-opacity="0"/>
</linearGradient>
<linearGradient id="paint25_linear_5383_22206" x1="8.66864" y1="2.24826" x2="423.188" y2="240.756" gradientUnits="userSpaceOnUse">
<stop/>
<stop offset="1" stop-color="#666666" stop-opacity="0"/>
</linearGradient>
<linearGradient id="paint26_linear_5383_22206" x1="0" y1="0.5" x2="562.222" y2="0.5" gradientUnits="userSpaceOnUse">
<stop/>
<stop offset="1" stop-color="#666666" stop-opacity="0"/>
</linearGradient>
<linearGradient id="paint27_linear_5383_22206" x1="0" y1="0.5" x2="601.495" y2="0.5" gradientUnits="userSpaceOnUse">
<stop/>
<stop offset="1" stop-color="#666666" stop-opacity="0"/>
</linearGradient>
<linearGradient id="paint28_linear_5383_22206" x1="0" y1="0.5" x2="618.364" y2="0.5" gradientUnits="userSpaceOnUse">
<stop/>
<stop offset="1" stop-color="#666666" stop-opacity="0"/>
</linearGradient>
<linearGradient id="paint29_linear_5383_22206" x1="0" y1="0.5" x2="655.42" y2="0.5" gradientUnits="userSpaceOnUse">
<stop/>
<stop offset="1" stop-color="#666666" stop-opacity="0"/>
</linearGradient>
<linearGradient id="paint30_linear_5383_22206" x1="0" y1="0.5" x2="655.42" y2="0.5" gradientUnits="userSpaceOnUse">
<stop/>
<stop offset="1" stop-color="#666666" stop-opacity="0"/>
</linearGradient>
<linearGradient id="paint31_linear_5383_22206" x1="0" y1="0.5" x2="655.42" y2="0.5" gradientUnits="userSpaceOnUse">
<stop/>
<stop offset="1" stop-color="#666666" stop-opacity="0"/>
</linearGradient>
<linearGradient id="paint32_linear_5383_22206" x1="0" y1="0.5" x2="655.42" y2="0.5" gradientUnits="userSpaceOnUse">
<stop/>
<stop offset="1" stop-color="#666666" stop-opacity="0"/>
</linearGradient>
<linearGradient id="paint33_linear_5383_22206" x1="0" y1="0.5" x2="655.42" y2="0.5" gradientUnits="userSpaceOnUse">
<stop/>
<stop offset="1" stop-color="#666666" stop-opacity="0"/>
</linearGradient>
<linearGradient id="paint34_linear_5383_22206" x1="0" y1="0.5" x2="493.475" y2="0.5" gradientUnits="userSpaceOnUse">
<stop/>
<stop offset="1" stop-color="#666666" stop-opacity="0"/>
</linearGradient>
<linearGradient id="paint35_linear_5383_22206" x1="0" y1="0.5" x2="464.35" y2="0.5" gradientUnits="userSpaceOnUse">
<stop/>
<stop offset="1" stop-color="#666666" stop-opacity="0"/>
</linearGradient>
<linearGradient id="paint36_linear_5383_22206" x1="0" y1="0.5" x2="446.162" y2="0.5" gradientUnits="userSpaceOnUse">
<stop/>
<stop offset="1" stop-color="#666666" stop-opacity="0"/>
</linearGradient>
<linearGradient id="paint37_linear_5383_22206" x1="0" y1="0.5" x2="432.311" y2="0.5" gradientUnits="userSpaceOnUse">
<stop/>
<stop offset="1" stop-color="#666666" stop-opacity="0"/>
</linearGradient>
<linearGradient id="paint38_linear_5383_22206" x1="0" y1="0.5" x2="420.015" y2="0.5" gradientUnits="userSpaceOnUse">
<stop/>
<stop offset="1" stop-color="#666666" stop-opacity="0"/>
</linearGradient>
<linearGradient id="paint39_linear_5383_22206" x1="0" y1="0.5" x2="411.967" y2="0.5" gradientUnits="userSpaceOnUse">
<stop/>
<stop offset="1" stop-color="#666666" stop-opacity="0"/>
</linearGradient>
<linearGradient id="paint40_linear_5383_22206" x1="0" y1="0.5" x2="406.861" y2="0.5" gradientUnits="userSpaceOnUse">
<stop/>
<stop offset="1" stop-color="#666666" stop-opacity="0"/>
</linearGradient>
<linearGradient id="paint41_linear_5383_22206" x1="0" y1="0.5" x2="405.083" y2="0.5" gradientUnits="userSpaceOnUse">
<stop/>
<stop offset="1" stop-color="#666666" stop-opacity="0"/>
</linearGradient>
<linearGradient id="paint42_linear_5383_22206" x1="0" y1="0.5" x2="406.679" y2="0.5" gradientUnits="userSpaceOnUse">
<stop/>
<stop offset="1" stop-color="#666666" stop-opacity="0"/>
</linearGradient>
<linearGradient id="paint43_linear_5383_22206" x1="0" y1="0.5" x2="411.786" y2="0.5" gradientUnits="userSpaceOnUse">
<stop/>
<stop offset="1" stop-color="#666666" stop-opacity="0"/>
</linearGradient>
<linearGradient id="paint44_linear_5383_22206" x1="0" y1="0.5" x2="419.752" y2="0.5" gradientUnits="userSpaceOnUse">
<stop/>
<stop offset="1" stop-color="#666666" stop-opacity="0"/>
</linearGradient>
<linearGradient id="paint45_linear_5383_22206" x1="0" y1="0.5" x2="426.573" y2="0.5" gradientUnits="userSpaceOnUse">
<stop/>
<stop offset="1" stop-color="#666666" stop-opacity="0"/>
</linearGradient>
<linearGradient id="paint46_linear_5383_22206" x1="0" y1="0.5" x2="439.45" y2="0.5" gradientUnits="userSpaceOnUse">
<stop/>
<stop offset="1" stop-color="#666666" stop-opacity="0"/>
</linearGradient>
<linearGradient id="paint47_linear_5383_22206" x1="0" y1="0.5" x2="455.461" y2="0.5" gradientUnits="userSpaceOnUse">
<stop/>
<stop offset="1" stop-color="#666666" stop-opacity="0"/>
</linearGradient>
<linearGradient id="paint48_linear_5383_22206" x1="0" y1="0.5" x2="473.138" y2="0.5" gradientUnits="userSpaceOnUse">
<stop/>
<stop offset="1" stop-color="#666666" stop-opacity="0"/>
</linearGradient>
<linearGradient id="paint49_linear_5383_22206" x1="0" y1="0.5" x2="496.19" y2="0.5" gradientUnits="userSpaceOnUse">
<stop/>
<stop offset="1" stop-color="#666666" stop-opacity="0"/>
</linearGradient>
<linearGradient id="paint50_linear_5383_22206" x1="0" y1="0.5" x2="517.629" y2="0.5" gradientUnits="userSpaceOnUse">
<stop/>
<stop offset="1" stop-color="#666666" stop-opacity="0"/>
</linearGradient>
<linearGradient id="paint51_linear_5383_22206" x1="0" y1="0.5" x2="544.533" y2="0.5" gradientUnits="userSpaceOnUse">
<stop/>
<stop offset="1" stop-color="#666666" stop-opacity="0"/>
</linearGradient>
<linearGradient id="paint52_linear_5383_22206" x1="1515.69" y1="1.06439" x2="1093.34" y2="216.768" gradientUnits="userSpaceOnUse">
<stop/>
<stop offset="1" stop-color="#666666" stop-opacity="0"/>
</linearGradient>
<linearGradient id="paint53_linear_5383_22206" x1="1560.69" y1="1.06439" x2="1138.34" y2="216.768" gradientUnits="userSpaceOnUse">
<stop/>
<stop offset="1" stop-color="#666666" stop-opacity="0"/>
</linearGradient>
<linearGradient id="paint54_linear_5383_22206" x1="1605.69" y1="1.06437" x2="1183.34" y2="216.768" gradientUnits="userSpaceOnUse">
<stop/>
<stop offset="1" stop-color="#666666" stop-opacity="0"/>
</linearGradient>
<linearGradient id="paint55_linear_5383_22206" x1="1650.69" y1="1.06437" x2="1228.34" y2="216.768" gradientUnits="userSpaceOnUse">
<stop/>
<stop offset="1" stop-color="#666666" stop-opacity="0"/>
</linearGradient>
<linearGradient id="paint56_linear_5383_22206" x1="1695.69" y1="1.06437" x2="1273.34" y2="216.768" gradientUnits="userSpaceOnUse">
<stop/>
<stop offset="1" stop-color="#666666" stop-opacity="0"/>
</linearGradient>
<linearGradient id="paint57_linear_5383_22206" x1="1740.69" y1="1.06441" x2="1318.34" y2="216.768" gradientUnits="userSpaceOnUse">
<stop/>
<stop offset="1" stop-color="#666666" stop-opacity="0"/>
</linearGradient>
<clipPath id="clip0_5383_22206">
<rect width="1440" height="435" fill="white"/>
</clipPath>
</defs>
</svg>
