<svg width="241" height="259" viewBox="0 0 241 259" fill="none" xmlns="http://www.w3.org/2000/svg">
<path fill-rule="evenodd" clip-rule="evenodd" d="M286.981 143.481C286.993 143.493 287 143.51 287 143.527C286.997 158.139 284.796 172.23 280.767 185.502C277.334 196.692 272.594 207.323 266.66 217.171C264.533 220.715 262.256 224.146 259.867 227.504C250.425 240.559 238.818 251.936 225.607 261.187C221.315 264.171 216.836 266.969 212.208 269.505C203.512 274.243 194.257 278.16 184.553 281.032C171.528 284.911 157.757 287 143.5 287C129.243 287 115.434 284.911 102.447 281.032C92.7431 278.16 83.5248 274.28 74.7916 269.505C70.1638 266.969 65.6853 264.209 61.3933 261.187C48.1816 251.936 36.5748 240.559 27.1325 227.504C24.7066 224.184 22.4673 220.715 20.34 217.171C14.4433 207.323 9.66618 196.692 6.23263 185.502C2.16462 172.222 0 158.122 0 143.5C0 128.878 2.20194 114.778 6.23263 101.498C9.66618 90.3077 14.406 79.6768 20.34 69.8291C22.4673 66.2854 24.744 62.8536 27.1325 59.4964C36.5748 46.4408 48.1816 35.0636 61.3933 25.8128C65.6853 22.8286 70.1638 20.0311 74.7916 17.4946C83.4875 12.7572 92.7431 8.84055 102.447 5.96831C109.206 3.955 116.167 2.42393 123.292 1.41681C134.379 -0.150212 143.5 9.07676 143.5 20.2735C143.5 31.4703 134.338 40.3368 123.354 42.5115C116.08 43.9518 109.081 46.1593 102.447 49.0519C95.9155 51.8869 89.7202 55.3932 83.9727 59.4964C75.3889 65.5766 67.7753 72.9623 61.3933 81.3552C56.6909 87.5473 52.6975 94.299 49.4879 101.461C43.7404 114.293 40.5682 128.505 40.5682 143.463C40.5682 158.421 43.7777 172.633 49.4879 185.465C52.6975 192.627 56.7282 199.378 61.3933 205.57C67.738 213.963 75.3889 221.349 83.9727 227.429C89.7202 231.495 95.9155 235.001 102.447 237.874C115.024 243.357 128.907 246.378 143.5 246.378C158.093 246.378 171.976 243.357 184.553 237.874C191.084 235.039 197.28 231.532 203.027 227.429C211.611 221.349 219.225 213.963 225.607 205.57C230.309 199.378 234.302 192.627 237.512 185.465C243.26 172.633 246.432 158.421 246.432 143.463C246.432 138.708 246.108 134.029 245.482 129.445C243.625 115.845 252.98 101.461 266.706 101.461C275.04 101.461 282.526 106.881 284.164 115.052C286.002 124.224 286.961 133.715 286.963 143.436C286.963 143.453 286.969 143.469 286.981 143.481Z" fill="white" fill-opacity="0.1"/>
<path d="M103.237 171.971C118.098 171.971 130.145 159.93 130.145 145.076C130.145 130.223 118.098 118.182 103.237 118.182C88.3755 118.182 76.3281 130.223 76.3281 145.076C76.3281 159.93 88.3755 171.971 103.237 171.971Z" fill="white" fill-opacity="0.1"/>
<path d="M187.506 171.971C202.367 171.971 214.415 159.93 214.415 145.076C214.415 130.223 202.367 118.182 187.506 118.182C172.645 118.182 160.598 130.223 160.598 145.076C160.598 159.93 172.645 171.971 187.506 171.971Z" fill="white" fill-opacity="0.1"/>
</svg>
